<?xml version="1.0" encoding="UTF-8"?> <!-- Generator: Adobe Illustrator 25.4.1, SVG Export Plug-In . SVG Version: 6.00 Build 0) --> <svg xmlns="http://www.w3.org/2000/svg" xmlns:xlink="http://www.w3.org/1999/xlink" version="1.1" id="Camada_1" x="0px" y="0px" viewBox="0 0 776.3 267.8" style="enable-background:new 0 0 776.3 267.8;" xml:space="preserve"> <style type="text/css"> .st0{fill:url(#SVGID_1_);} .st1{fill:url(#SVGID_00000156546750330204864750000008789910087284413345_);} .st2{fill:url(#SVGID_00000013162615927600941290000015056411942444288903_);} .st3{fill:url(#SVGID_00000183927171839364468300000017309658719458113188_);} .st4{fill:#281D67;} </style> <g> <g> <linearGradient id="SVGID_1_" gradientUnits="userSpaceOnUse" x1="161.9143" y1="133.25" x2="161.9143" y2="247.347" gradientTransform="matrix(1 0 0 -1 0 267.9)"> <stop offset="0" style="stop-color:#24195D"></stop> <stop offset="0.1042" style="stop-color:#2D195E"></stop> <stop offset="0.2742" style="stop-color:#451A60"></stop> <stop offset="0.4888" style="stop-color:#6D1A63"></stop> <stop offset="0.7397" style="stop-color:#A41B68"></stop> <stop offset="1" style="stop-color:#E51C6D"></stop> </linearGradient> <path class="st0" d="M160.5,19c12.7,0,23,6.5,27.5,17.4c6.2,15-0.3,34.3-17.4,51.4C152,106.4,125,119.1,115,123.4 c1.3,0.7,2.7,1.4,4,2.1c5.7,3.1,11.4,6.1,16.9,9.1c13.9-7,33.1-18.3,48.2-33.4c22.8-22.8,30.8-49.7,21.5-72.1 C198.1,11.2,180.9,0,160.5,0h-46v19L160.5,19L160.5,19z"></path> <linearGradient id="SVGID_00000099640318107232755890000010837922293687392182_" gradientUnits="userSpaceOnUse" x1="67.0356" y1="134.71" x2="67.0356" y2="19.6226" gradientTransform="matrix(1 0 0 -1 0 267.9)"> <stop offset="0" style="stop-color:#24195D"></stop> <stop offset="0.1042" style="stop-color:#2D195E"></stop> <stop offset="0.2742" style="stop-color:#451A60"></stop> <stop offset="0.4888" style="stop-color:#6D1A63"></stop> <stop offset="0.7397" style="stop-color:#A41B68"></stop> <stop offset="1" style="stop-color:#E51C6D"></stop> </linearGradient> <path style="fill:url(#SVGID_00000099640318107232755890000010837922293687392182_);" d="M68.4,248.8c-12.7,0-23-6.5-27.5-17.3 c-6.2-15.1,0.3-34.3,17.4-51.4C77,161.5,104,148.8,114,144.4c-1.3-0.7-2.7-1.4-4-2.1c-5.7-3.1-11.4-6.1-16.9-9.1 c-13.9,7-33.1,18.3-48.2,33.4c-22.8,22.8-30.8,49.7-21.5,72.2c7.4,18,24.7,29.1,45.1,29.1h46v-19H68.4z"></path> <linearGradient id="SVGID_00000034800541022826398200000009760915316651574156_" gradientUnits="userSpaceOnUse" x1="57.24" y1="6.005859e-02" x2="57.24" y2="248.3384" gradientTransform="matrix(1 0 0 -1 0 267.9)"> <stop offset="0" style="stop-color:#24195D"></stop> <stop offset="0.1042" style="stop-color:#2D195E"></stop> <stop offset="0.2742" style="stop-color:#451A60"></stop> <stop offset="0.4888" style="stop-color:#6D1A63"></stop> <stop offset="0.7397" style="stop-color:#A41B68"></stop> <stop offset="1" style="stop-color:#E51C6D"></stop> </linearGradient> <path style="fill:url(#SVGID_00000034800541022826398200000009760915316651574156_);" d="M57.1,0C25.6,0,0,25.6,0,57.1v153.6 c0,31.5,25.6,57.1,57.1,57.1h11.3c-20.4,0-37.6-11.2-45.1-29.1c-2.8-6.8-4-14-3.7-21.3c-0.4-2.2-0.6-4.4-0.6-6.7V57.1 C19,36.1,36.1,19,57.1,19h57.4V0H57.1z"></path> <linearGradient id="SVGID_00000154419708172366696390000007232826880423560870_" gradientUnits="userSpaceOnUse" x1="114.4973" y1="248.87" x2="114.4973" y2="19.6207" gradientTransform="matrix(1 0 0 -1 0 267.9)"> <stop offset="0" style="stop-color:#24195D"></stop> <stop offset="0.1042" style="stop-color:#2D195E"></stop> <stop offset="0.2742" style="stop-color:#451A60"></stop> <stop offset="0.4888" style="stop-color:#6D1A63"></stop> <stop offset="0.7397" style="stop-color:#A41B68"></stop> <stop offset="1" style="stop-color:#E51C6D"></stop> </linearGradient> <path style="fill:url(#SVGID_00000154419708172366696390000007232826880423560870_);" d="M184,166.6 c-13.4-13.4-38.5-26.8-65.1-41.1c-24.2-12.9-49.2-26.3-60.6-37.8C41.2,70.7,34.7,51.4,40.9,36.4C45.4,25.5,55.7,19,68.4,19H57.1 c-18.7,0-34.3,13.5-37.5,31.3c0.7,17,9.4,35,25.3,50.9c13.4,13.4,38.5,26.9,65.1,41.1c24.2,12.9,49.2,26.3,60.6,37.8 c17.1,17.1,23.6,36.3,17.4,51.4c-4.5,10.9-14.8,17.3-27.5,17.3h-46v19h46c20.4,0,37.6-11.2,45.1-29.1 C214.9,216.3,206.8,189.4,184,166.6z"></path> </g> <g> <path class="st4" d="M366.3,150.5c0,33.3-22.2,53.8-55.5,53.8c-15.7,0-29.7-3.3-42.1-9.6V63.3c4.2-0.6,8-1,11.9-1s8,0.4,11.7,1 v40.4c6.1-2.9,13.2-4.6,21.6-4.6C343.9,99.2,366.3,118,366.3,150.5z M342.5,151.5c0-18-10.9-31-30.2-31c-7.5,0-14.2,1.5-19.9,4.4 v54.9c6.5,2.5,12.8,3.6,19.5,3.6C331.4,183.3,342.5,171,342.5,151.5z"></path> <path class="st4" d="M455.5,193.4c-6.1,5.2-16.1,10.7-29.7,10.7c-21.4,0-37.1-9.6-37.1-33.5v-49h-17c-0.6-3.1-0.8-6.3-0.8-9.8 c0-3.1,0.2-6.3,0.8-9.4h17V77c4-0.8,8-1,11.9-1s7.8,0.2,11.5,1v25.3h37.1c0.8,3.1,1,6.3,1,9.4c0,3.6-0.2,6.5-1,9.8h-37.1v43.5 c0,14.7,6.9,18.4,16.8,18.4c7.1,0,13.4-3.8,16.5-6.7C450.5,180.2,454.7,186.9,455.5,193.4z"></path> <path class="st4" d="M461.7,75.9c0-8.4,6.9-15.1,15.5-15.1c8.2,0,15.1,6.7,15.1,15.1c0,8.4-6.9,15.1-15.1,15.1 C468.6,91,461.7,84.3,461.7,75.9z M465.2,201.1v-98.8c4-0.8,8-1,11.9-1c3.8,0,8,0.2,11.7,1v98.8c-3.8,0.8-7.8,1-11.7,1 C473.4,202.2,469.2,202,465.2,201.1z"></path> <path class="st4" d="M665.9,138.1v63c-3.8,0.8-8,1-11.7,1c-4.2,0-8.2-0.2-11.9-1v-55.9c0-14.2-6.3-24.5-22.4-24.5 c-9.4,0-16.1,4-21.2,8c0.6,3.1,1.1,6.3,1.1,9.4v63c-3.8,0.8-8,1-11.7,1c-4.2,0-8.2-0.2-12.2-1v-55.9c0-14.2-6.1-24.5-22.2-24.5 c-7.8,0-15.1,2.3-20.3,5.4v75c-3.8,0.8-8,1-11.9,1c-3.8,0-7.8-0.2-11.7-1v-86.5c8-6.9,26-15.7,46.7-15.7 c14.2,0,25.1,4.4,32.5,11.5c8.2-6.3,20.3-11.5,33.7-11.5C651.2,98.9,665.9,116.5,665.9,138.1z"></path> <path class="st4" d="M775.4,158h-70.2c1.9,16.3,11.9,26.4,28.5,26.4c14.4,0,22.8-5.7,29.3-10.3c5.2,3.3,9.4,10,10.3,16.1 c-8.4,6.7-21.4,14-41.2,14c-29.7,0-51.1-19.7-51.1-52.1c0-30.8,21.6-53,49.8-53c26.6,0,45.4,18.2,45.4,44.8 C776.3,149.2,776.1,152.5,775.4,158z M753,142.3c0-11.7-6.1-23.7-22.2-23.9c-14.7,0-23.7,10.3-25.3,23.9H753z"></path> </g> </g> </svg> 